<svg width="27" height="21" viewBox="0 0 27 21" fill="none" xmlns="http://www.w3.org/2000/svg">
<path d="M21.6971 11.5312V9.46878H26.6683V11.5312H21.6971ZM23.2678 20.786L19.2909 17.8033L20.5443 16.1587L24.5211 19.1413L23.2678 20.786ZM20.4913 4.78846L19.238 3.14378L23.2149 0.161099L24.4683 1.80577L20.4913 4.78846ZM4.21881 19.411V14.0432H2.81734C2.13163 14.0432 1.54593 13.8004 1.06026 13.3148C0.574612 12.8291 0.331787 12.2434 0.331787 11.5577V9.44232C0.331787 8.7566 0.574612 8.17091 1.06026 7.68524C1.54593 7.19959 2.13163 6.95676 2.81734 6.95676H8.13223L14.2933 3.28132V17.7187L8.13223 14.0432H6.28124V19.411H4.21881ZM16.1971 14.7889V6.21107C16.7366 6.69937 17.1711 7.31459 17.5007 8.05673C17.8304 8.79888 17.9952 9.61331 17.9952 10.5C17.9952 11.3867 17.8304 12.2011 17.5007 12.9433C17.1711 13.6854 16.7366 14.3006 16.1971 14.7889ZM2.81734 9.01923C2.71158 9.01923 2.61462 9.0633 2.52646 9.15143C2.43832 9.23959 2.39425 9.33655 2.39425 9.44232V11.5577C2.39425 11.6634 2.43832 11.7604 2.52646 11.8486C2.61462 11.9367 2.71158 11.9808 2.81734 11.9808H8.70337L12.2308 14.0539V6.94614L8.70337 9.01923H2.81734Z" fill="#3C1053"/>
</svg>
