<svg width="33" height="33" viewBox="0 0 33 33" fill="none" xmlns="http://www.w3.org/2000/svg">
<mask id="mask0_3_428" style="mask-type:alpha" maskUnits="userSpaceOnUse" x="0" y="0" width="33" height="33">
<rect width="33" height="33" fill="#D9D9D9"/>
</mask>
<g mask="url(#mask0_3_428)">
<path d="M3.25246 28.2932V4.23077H16.3149V9.73077H29.7476V28.2932H3.25246ZM5.31489 26.2308H8.75242V22.7932H5.31489V26.2308ZM5.31489 20.7308H8.75242V17.2932H5.31489V20.7308ZM5.31489 15.2308H8.75242V11.7932H5.31489V15.2308ZM5.31489 9.73077H8.75242V6.29324H5.31489V9.73077ZM10.8149 26.2308H14.2524V22.7932H10.8149V26.2308ZM10.8149 20.7308H14.2524V17.2932H10.8149V20.7308ZM10.8149 15.2308H14.2524V11.7932H10.8149V15.2308ZM10.8149 9.73077H14.2524V6.29324H10.8149V9.73077ZM16.3149 26.2308H27.6851V11.7932H16.3149V15.2308H19.3293V17.2932H16.3149V20.7308H19.3293V22.7932H16.3149V26.2308ZM22.3438 17.2932V15.2308H24.4062V17.2932H22.3438ZM22.3438 22.7932V20.7308H24.4062V22.7932H22.3438Z" fill="#3C1053"/>
</g>
</svg>
