<svg width="33" height="33" viewBox="0 0 33 33" fill="none" xmlns="http://www.w3.org/2000/svg">
<mask id="mask0_3_398" style="mask-type:alpha" maskUnits="userSpaceOnUse" x="0" y="0" width="33" height="33">
<rect width="33" height="33" fill="#D9D9D9"/>
</mask>
<g mask="url(#mask0_3_398)">
<path d="M12.1159 30.0649L9.66205 25.9293L5.00293 24.9086L5.45774 20.112L2.30054 16.5L5.45774 12.888L5.00293 8.09139L9.66205 7.07073L12.1159 2.93514L16.5 4.79669L20.8841 2.93514L23.3379 7.07073L27.9971 8.09139L27.5422 12.888L30.6994 16.5L27.5422 20.112L27.9971 24.9086L23.3379 25.9293L20.8841 30.0648L16.5 28.2033L12.1159 30.0649ZM12.9937 27.4313L16.5 25.9452L20.0486 27.4313L22 24.1313L25.7812 23.2639L25.4375 19.3875L27.9812 16.5L25.4375 13.5702L25.7812 9.69375L22 8.86875L20.0062 5.56875L16.5 7.05482L12.9514 5.56875L11 8.86875L7.21874 9.69375L7.56249 13.5702L5.01874 16.5L7.56249 19.3875L7.21874 23.3063L11 24.1313L12.9937 27.4313ZM15.0562 20.9053L22.349 13.6125L20.9 12.1212L15.0562 17.9649L12.1 15.051L10.651 16.5L15.0562 20.9053Z" fill="white"/>
</g>
</svg>
